<?xml version="1.0" standalone="no"?>
<!DOCTYPE svg PUBLIC "-//W3C//DTD SVG 20010904//EN" "http://www.w3.org/TR/2001/REC-SVG-20010904/DTD/svg10.dtd">
<!-- Created using Krita: https://krita.org -->
<svg xmlns="http://www.w3.org/2000/svg" 
    xmlns:xlink="http://www.w3.org/1999/xlink"
    xmlns:krita="http://krita.org/namespaces/svg/krita"
    xmlns:sodipodi="http://sodipodi.sourceforge.net/DTD/sodipodi-0.dtd"
    width="240pt"
    height="240pt"
    viewBox="0 0 240 240">
<defs/>
<path id="shape0" transform="translate(87.4349986971533, 60.3899990599108)" fill="none" stroke="#ffffff" stroke-width="1.2" stroke-linecap="square" stroke-linejoin="bevel" d="M0 0L13.815 16.41L31.95 16.41" sodipodi:nodetypes="ccc"/><path id="shape01" transform="translate(87.6816749341004, 31.6626757054362)" fill="none" stroke="#ffffff" stroke-width="1.2" stroke-linecap="square" stroke-linejoin="bevel" d="M0 0L13.815 16.41L31.95 16.41" sodipodi:nodetypes="ccc"/><path id="shape02" transform="translate(111.996673940576, 46.4376759555583)" fill="none" stroke="#ffffff" stroke-width="1.2" stroke-linecap="square" stroke-linejoin="bevel" d="M0 0L13.815 16.41L31.95 16.41" sodipodi:nodetypes="ccc"/><path id="shape1" transform="translate(26.9850041580545, 35.481531208049)" fill="none" stroke="#ffffff" stroke-width="1.2" stroke-linecap="square" stroke-linejoin="bevel" d="M0 0.0534674C23.0916 -1.23431 21.1283 20.9576 26.1577 43.1436C31.4554 65.314 42.655 85.9209 93.015 87.4135" sodipodi:nodetypes="ccc"/><path id="shape2" transform="translate(117.269994757683, 131.759994109937)" fill="none" stroke="#ffffff" stroke-width="1.2" stroke-linecap="square" stroke-linejoin="bevel" d="M0 0L0.09 66.96" sodipodi:nodetypes="cc"/><path id="shape3" transform="translate(46.1362493125422, 208.664990720344)" fill="none" stroke="#ffffff" stroke-width="1.2" stroke-linecap="square" stroke-linejoin="bevel" d="M0 0.45L128.497 0" sodipodi:nodetypes="cc"/><path id="shape4" transform="translate(124.8, 124.755000002012)" fill="none" stroke="#f59b14" stroke-width="4.8" stroke-linecap="square" stroke-linejoin="bevel" d="M0 0L0 27.12L0 73.47" sodipodi:nodetypes="ccc"/><path id="shape5" transform="translate(48, 206.4)" fill="none" stroke="#f59b14" stroke-width="4.8" stroke-linecap="square" stroke-linejoin="bevel" d="M124.8 0L0 0" sodipodi:nodetypes="cc"/><path id="shape6" transform="translate(28.8, 43.1999803087484)" fill="none" stroke="#f59b14" stroke-width="4.8" stroke-linecap="square" stroke-linejoin="bevel" d="M0 2.03679e-05C32.935 0.510028 -14.1679 81.327 91.2 86.4C192.004 81.8528 152.707 -0.04715 182.4 2.03679e-05" sodipodi:nodetypes="ccc"/><path id="shape7" transform="translate(90.73500146515, 60)" fill="none" stroke="#000000" stroke-width="4.8" stroke-linecap="square" stroke-linejoin="bevel" d="M0 0L12 14.4L26.4 14.4" sodipodi:nodetypes="ccc"/><path id="shape03" transform="translate(91.0317064312709, 31.2)" fill="none" stroke="#000000" stroke-width="4.8" stroke-linecap="square" stroke-linejoin="bevel" d="M0 0L12 14.4L26.4 14.4" sodipodi:nodetypes="ccc"/><path id="shape04" transform="translate(115.541705906908, 45.6)" fill="none" stroke="#000000" stroke-width="4.8" stroke-linecap="square" stroke-linejoin="bevel" d="M0 0L12 14.4L26.4 14.4" sodipodi:nodetypes="ccc"/><g id="group0" transform="translate(92.5666484197243, 14.4)" fill="none" stroke="#f59b14" stroke-width="0.7608" stroke-linecap="square" stroke-linejoin="bevel">
  <path id="shape05" fill="none" stroke="#ffb100" stroke-width="4.8" stroke-linecap="square" stroke-linejoin="bevel" d="M25.6 0L12.8 0L0 14.4L12.8 28.8L25.6 28.8L38.4 14.4Z" sodipodi:nodetypes="ccccccc"/>
  <path id="shape011" transform="translate(26.0667031605517, 14.4)" fill="none" stroke="#ffb100" stroke-width="4.8" stroke-linecap="square" stroke-linejoin="bevel" d="M25.6 0L12.8 0L0 14.4L12.8 28.8L25.6 28.8L38.4 14.4Z" sodipodi:nodetypes="ccccccc"/>
  <path id="shape021" transform="translate(0, 28.8)" fill="none" stroke="#ffb100" stroke-width="4.8" stroke-linecap="square" stroke-linejoin="bevel" d="M25.6 0L12.8 0L0 14.4L12.8 28.8L25.6 28.8L38.4 14.4Z" sodipodi:nodetypes="ccccccc"/>
 </g><path id="shape8" transform="translate(28.8, 38.3997933625791)" fill="none" stroke="#000000" stroke-width="4.8" stroke-linecap="square" stroke-linejoin="bevel" d="M0 8.06541e-07C38.3527 -0.00963374 -9.71046 86.3011 91.2 86.4001C191.799 86.6032 144 -0.00456869 182.4 8.06541e-07" sodipodi:nodetypes="ccc"/><path id="shape9" transform="translate(119.939933073536, 124.800018526113)" fill="#c5a23f" fill-rule="evenodd" stroke="#000000" stroke-width="4.8" stroke-linecap="square" stroke-linejoin="bevel" d="M0.0600669 0C-0.051847 25.2642 0.0193765 51.0779 0.0600669 76.8" sodipodi:nodetypes="cc"/><path id="shape10" transform="translate(57.6, 201.6)" fill="none" stroke="#000000" stroke-width="4.8" stroke-linecap="square" stroke-linejoin="bevel" d="M0 0L124.8 0" sodipodi:nodetypes="cc"/>
</svg>
